<?xml version="1.0" encoding="UTF-8"?>
<svg xmlns="http://www.w3.org/2000/svg" class="qr-svg qrcode" viewBox="0 0 45 45" preserveAspectRatio="xMidYMid">
<defs>	<linearGradient id="gradient" x1="100%" y2="100%">
		<stop stop-color="#000000" offset="0"/>
		<stop stop-color="#000000" offset="1"/>
	</linearGradient>
	<style><![CDATA[
		.dark{fill: url(#gradient);}
		.light{fill: #FFFFFF;}
	]]></style>
</defs>
<path class="qr-data-dark dark qrcode" fill="#000" d="M4 4 h1 v1 h-1Z M5 4 h1 v1 h-1Z M6 4 h1 v1 h-1Z M7 4 h1 v1 h-1Z M8 4 h1 v1 h-1Z M9 4 h1 v1 h-1Z M10 4 h1 v1 h-1Z M13.05 4.5 a0.45 0.45 0 1 0 0.9 0 a0.45 0.45 0 1 0 -0.9 0Z M15.05 4.5 a0.45 0.45 0 1 0 0.9 0 a0.45 0.45 0 1 0 -0.9 0Z M18.05 4.5 a0.45 0.45 0 1 0 0.9 0 a0.45 0.45 0 1 0 -0.9 0Z M19.05 4.5 a0.45 0.45 0 1 0 0.9 0 a0.45 0.45 0 1 0 -0.9 0Z M20.05 4.5 a0.45 0.45 0 1 0 0.9 0 a0.45 0.45 0 1 0 -0.9 0Z M21.05 4.5 a0.45 0.45 0 1 0 0.9 0 a0.45 0.45 0 1 0 -0.9 0Z M22.05 4.5 a0.45 0.45 0 1 0 0.9 0 a0.45 0.45 0 1 0 -0.9 0Z M23.05 4.5 a0.45 0.45 0 1 0 0.9 0 a0.45 0.45 0 1 0 -0.9 0Z M26.05 4.5 a0.45 0.45 0 1 0 0.9 0 a0.45 0.45 0 1 0 -0.9 0Z M34 4 h1 v1 h-1Z M35 4 h1 v1 h-1Z M36 4 h1 v1 h-1Z M37 4 h1 v1 h-1Z M38 4 h1 v1 h-1Z M39 4 h1 v1 h-1Z M40 4 h1 v1 h-1Z M4 5 h1 v1 h-1Z M10 5 h1 v1 h-1Z M15.05 5.5 a0.45 0.45 0 1 0 0.9 0 a0.45 0.45 0 1 0 -0.9 0Z M16.05 5.5 a0.45 0.45 0 1 0 0.9 0 a0.45 0.45 0 1 0 -0.9 0Z M17.05 5.5 a0.45 0.45 0 1 0 0.9 0 a0.45 0.45 0 1 0 -0.9 0Z M19.05 5.5 a0.45 0.45 0 1 0 0.9 0 a0.45 0.45 0 1 0 -0.9 0Z M24.05 5.5 a0.45 0.45 0 1 0 0.9 0 a0.45 0.45 0 1 0 -0.9 0Z M25.05 5.5 a0.45 0.45 0 1 0 0.9 0 a0.45 0.45 0 1 0 -0.9 0Z M26.05 5.5 a0.45 0.45 0 1 0 0.9 0 a0.45 0.45 0 1 0 -0.9 0Z M29.05 5.5 a0.45 0.45 0 1 0 0.9 0 a0.45 0.45 0 1 0 -0.9 0Z M30.05 5.5 a0.45 0.45 0 1 0 0.9 0 a0.45 0.45 0 1 0 -0.9 0Z M34 5 h1 v1 h-1Z M40 5 h1 v1 h-1Z M4 6 h1 v1 h-1Z M6 6 h1 v1 h-1Z M7 6 h1 v1 h-1Z M8 6 h1 v1 h-1Z M10 6 h1 v1 h-1Z M14.05 6.5 a0.45 0.45 0 1 0 0.9 0 a0.45 0.45 0 1 0 -0.9 0Z M15.05 6.5 a0.45 0.45 0 1 0 0.9 0 a0.45 0.45 0 1 0 -0.9 0Z M16.05 6.5 a0.45 0.45 0 1 0 0.9 0 a0.45 0.45 0 1 0 -0.9 0Z M17.05 6.5 a0.45 0.45 0 1 0 0.9 0 a0.45 0.45 0 1 0 -0.9 0Z M20.05 6.5 a0.45 0.45 0 1 0 0.9 0 a0.45 0.45 0 1 0 -0.9 0Z M23.05 6.5 a0.45 0.45 0 1 0 0.9 0 a0.45 0.45 0 1 0 -0.9 0Z M24.05 6.5 a0.45 0.45 0 1 0 0.9 0 a0.45 0.45 0 1 0 -0.9 0Z M25.05 6.5 a0.45 0.45 0 1 0 0.9 0 a0.45 0.45 0 1 0 -0.9 0Z M27.05 6.5 a0.45 0.45 0 1 0 0.9 0 a0.45 0.45 0 1 0 -0.9 0Z M28.05 6.5 a0.45 0.45 0 1 0 0.9 0 a0.45 0.45 0 1 0 -0.9 0Z M29.05 6.5 a0.45 0.45 0 1 0 0.9 0 a0.45 0.45 0 1 0 -0.9 0Z M30.05 6.5 a0.45 0.45 0 1 0 0.9 0 a0.45 0.45 0 1 0 -0.9 0Z M31.05 6.5 a0.45 0.45 0 1 0 0.9 0 a0.45 0.45 0 1 0 -0.9 0Z M32.05 6.5 a0.45 0.45 0 1 0 0.9 0 a0.45 0.45 0 1 0 -0.9 0Z M34 6 h1 v1 h-1Z M36 6 h1 v1 h-1Z M37 6 h1 v1 h-1Z M38 6 h1 v1 h-1Z M40 6 h1 v1 h-1Z M4 7 h1 v1 h-1Z M6 7 h1 v1 h-1Z M7 7 h1 v1 h-1Z M8 7 h1 v1 h-1Z M10 7 h1 v1 h-1Z M13.05 7.5 a0.45 0.45 0 1 0 0.9 0 a0.45 0.45 0 1 0 -0.9 0Z M17.05 7.5 a0.45 0.45 0 1 0 0.9 0 a0.45 0.45 0 1 0 -0.9 0Z M19.05 7.5 a0.45 0.45 0 1 0 0.9 0 a0.45 0.45 0 1 0 -0.9 0Z M20.05 7.5 a0.45 0.45 0 1 0 0.9 0 a0.45 0.45 0 1 0 -0.9 0Z M26.05 7.5 a0.45 0.45 0 1 0 0.9 0 a0.45 0.45 0 1 0 -0.9 0Z M27.05 7.5 a0.45 0.45 0 1 0 0.9 0 a0.45 0.45 0 1 0 -0.9 0Z M28.05 7.5 a0.45 0.45 0 1 0 0.9 0 a0.45 0.45 0 1 0 -0.9 0Z M31.05 7.5 a0.45 0.45 0 1 0 0.9 0 a0.45 0.45 0 1 0 -0.9 0Z M34 7 h1 v1 h-1Z M36 7 h1 v1 h-1Z M37 7 h1 v1 h-1Z M38 7 h1 v1 h-1Z M40 7 h1 v1 h-1Z M4 8 h1 v1 h-1Z M6 8 h1 v1 h-1Z M7 8 h1 v1 h-1Z M8 8 h1 v1 h-1Z M10 8 h1 v1 h-1Z M12.05 8.5 a0.45 0.45 0 1 0 0.9 0 a0.45 0.45 0 1 0 -0.9 0Z M13.05 8.5 a0.45 0.45 0 1 0 0.9 0 a0.45 0.45 0 1 0 -0.9 0Z M14.05 8.5 a0.45 0.45 0 1 0 0.9 0 a0.45 0.45 0 1 0 -0.9 0Z M15.05 8.5 a0.45 0.45 0 1 0 0.9 0 a0.45 0.45 0 1 0 -0.9 0Z M16.05 8.5 a0.45 0.45 0 1 0 0.9 0 a0.45 0.45 0 1 0 -0.9 0Z M17.05 8.5 a0.45 0.45 0 1 0 0.9 0 a0.45 0.45 0 1 0 -0.9 0Z M18.05 8.5 a0.45 0.45 0 1 0 0.9 0 a0.45 0.45 0 1 0 -0.9 0Z M22.05 8.5 a0.45 0.45 0 1 0 0.9 0 a0.45 0.45 0 1 0 -0.9 0Z M23.05 8.5 a0.45 0.45 0 1 0 0.9 0 a0.45 0.45 0 1 0 -0.9 0Z M24.05 8.5 a0.45 0.45 0 1 0 0.9 0 a0.45 0.45 0 1 0 -0.9 0Z M26.05 8.5 a0.45 0.45 0 1 0 0.9 0 a0.45 0.45 0 1 0 -0.9 0Z M27.05 8.5 a0.45 0.45 0 1 0 0.9 0 a0.45 0.45 0 1 0 -0.9 0Z M30.05 8.5 a0.45 0.45 0 1 0 0.9 0 a0.45 0.45 0 1 0 -0.9 0Z M31.05 8.5 a0.45 0.45 0 1 0 0.9 0 a0.45 0.45 0 1 0 -0.9 0Z M34 8 h1 v1 h-1Z M36 8 h1 v1 h-1Z M37 8 h1 v1 h-1Z
M38 8 h1 v1 h-1Z M40 8 h1 v1 h-1Z M4 9 h1 v1 h-1Z M10 9 h1 v1 h-1Z M15.05 9.5 a0.45 0.45 0 1 0 0.9 0 a0.45 0.45 0 1 0 -0.9 0Z M16.05 9.5 a0.45 0.45 0 1 0 0.9 0 a0.45 0.45 0 1 0 -0.9 0Z M19.05 9.5 a0.45 0.45 0 1 0 0.9 0 a0.45 0.45 0 1 0 -0.9 0Z M21.05 9.5 a0.45 0.45 0 1 0 0.9 0 a0.45 0.45 0 1 0 -0.9 0Z M22.05 9.5 a0.45 0.45 0 1 0 0.9 0 a0.45 0.45 0 1 0 -0.9 0Z M24.05 9.5 a0.45 0.45 0 1 0 0.9 0 a0.45 0.45 0 1 0 -0.9 0Z M25.05 9.5 a0.45 0.45 0 1 0 0.9 0 a0.45 0.45 0 1 0 -0.9 0Z M27.05 9.5 a0.45 0.45 0 1 0 0.9 0 a0.45 0.45 0 1 0 -0.9 0Z M29.05 9.5 a0.45 0.45 0 1 0 0.9 0 a0.45 0.45 0 1 0 -0.9 0Z M34 9 h1 v1 h-1Z M40 9 h1 v1 h-1Z M4 10 h1 v1 h-1Z M5 10 h1 v1 h-1Z M6 10 h1 v1 h-1Z M7 10 h1 v1 h-1Z M8 10 h1 v1 h-1Z M9 10 h1 v1 h-1Z M10 10 h1 v1 h-1Z M12.05 10.5 a0.45 0.45 0 1 0 0.9 0 a0.45 0.45 0 1 0 -0.9 0Z M14.05 10.5 a0.45 0.45 0 1 0 0.9 0 a0.45 0.45 0 1 0 -0.9 0Z M16.05 10.5 a0.45 0.45 0 1 0 0.9 0 a0.45 0.45 0 1 0 -0.9 0Z M18.05 10.5 a0.45 0.45 0 1 0 0.9 0 a0.45 0.45 0 1 0 -0.9 0Z M20.05 10.5 a0.45 0.45 0 1 0 0.9 0 a0.45 0.45 0 1 0 -0.9 0Z M22.05 10.5 a0.45 0.45 0 1 0 0.9 0 a0.45 0.45 0 1 0 -0.9 0Z M24.05 10.5 a0.45 0.45 0 1 0 0.9 0 a0.45 0.45 0 1 0 -0.9 0Z M26.05 10.5 a0.45 0.45 0 1 0 0.9 0 a0.45 0.45 0 1 0 -0.9 0Z M28.05 10.5 a0.45 0.45 0 1 0 0.9 0 a0.45 0.45 0 1 0 -0.9 0Z M30.05 10.5 a0.45 0.45 0 1 0 0.9 0 a0.45 0.45 0 1 0 -0.9 0Z M32.05 10.5 a0.45 0.45 0 1 0 0.9 0 a0.45 0.45 0 1 0 -0.9 0Z M34 10 h1 v1 h-1Z M35 10 h1 v1 h-1Z M36 10 h1 v1 h-1Z M37 10 h1 v1 h-1Z M38 10 h1 v1 h-1Z M39 10 h1 v1 h-1Z M40 10 h1 v1 h-1Z M12.05 11.5 a0.45 0.45 0 1 0 0.9 0 a0.45 0.45 0 1 0 -0.9 0Z M13.05 11.5 a0.45 0.45 0 1 0 0.9 0 a0.45 0.45 0 1 0 -0.9 0Z M15.05 11.5 a0.45 0.45 0 1 0 0.9 0 a0.45 0.45 0 1 0 -0.9 0Z M16.05 11.5 a0.45 0.45 0 1 0 0.9 0 a0.45 0.45 0 1 0 -0.9 0Z M17.05 11.5 a0.45 0.45 0 1 0 0.9 0 a0.45 0.45 0 1 0 -0.9 0Z M18.05 11.5 a0.45 0.45 0 1 0 0.9 0 a0.45 0.45 0 1 0 -0.9 0Z M19.05 11.5 a0.45 0.45 0 1 0 0.9 0 a0.45 0.45 0 1 0 -0.9 0Z M20.05 11.5 a0.45 0.45 0 1 0 0.9 0 a0.45 0.45 0 1 0 -0.9 0Z M21.05 11.5 a0.45 0.45 0 1 0 0.9 0 a0.45 0.45 0 1 0 -0.9 0Z M22.05 11.5 a0.45 0.45 0 1 0 0.9 0 a0.45 0.45 0 1 0 -0.9 0Z M24.05 11.5 a0.45 0.45 0 1 0 0.9 0 a0.45 0.45 0 1 0 -0.9 0Z M26.05 11.5 a0.45 0.45 0 1 0 0.9 0 a0.45 0.45 0 1 0 -0.9 0Z M28.05 11.5 a0.45 0.45 0 1 0 0.9 0 a0.45 0.45 0 1 0 -0.9 0Z M31.05 11.5 a0.45 0.45 0 1 0 0.9 0 a0.45 0.45 0 1 0 -0.9 0Z M32.05 11.5 a0.45 0.45 0 1 0 0.9 0 a0.45 0.45 0 1 0 -0.9 0Z M6.05 12.5 a0.45 0.45 0 1 0 0.9 0 a0.45 0.45 0 1 0 -0.9 0Z M7.05 12.5 a0.45 0.45 0 1 0 0.9 0 a0.45 0.45 0 1 0 -0.9 0Z M10.05 12.5 a0.45 0.45 0 1 0 0.9 0 a0.45 0.45 0 1 0 -0.9 0Z M11.05 12.5 a0.45 0.45 0 1 0 0.9 0 a0.45 0.45 0 1 0 -0.9 0Z M12.05 12.5 a0.45 0.45 0 1 0 0.9 0 a0.45 0.45 0 1 0 -0.9 0Z M13.05 12.5 a0.45 0.45 0 1 0 0.9 0 a0.45 0.45 0 1 0 -0.9 0Z M14.05 12.5 a0.45 0.45 0 1 0 0.9 0 a0.45 0.45 0 1 0 -0.9 0Z M18.05 12.5 a0.45 0.45 0 1 0 0.9 0 a0.45 0.45 0 1 0 -0.9 0Z M20.05 12.5 a0.45 0.45 0 1 0 0.9 0 a0.45 0.45 0 1 0 -0.9 0Z M22.05 12.5 a0.45 0.45 0 1 0 0.9 0 a0.45 0.45 0 1 0 -0.9 0Z M23.05 12.5 a0.45 0.45 0 1 0 0.9 0 a0.45 0.45 0 1 0 -0.9 0Z M24.05 12.5 a0.45 0.45 0 1 0 0.9 0 a0.45 0.45 0 1 0 -0.9 0Z M25.05 12.5 a0.45 0.45 0 1 0 0.9 0 a0.45 0.45 0 1 0 -0.9 0Z M26.05 12.5 a0.45 0.45 0 1 0 0.9 0 a0.45 0.45 0 1 0 -0.9 0Z M27.05 12.5 a0.45 0.45 0 1 0 0.9 0 a0.45 0.45 0 1 0 -0.9 0Z M28.05 12.5 a0.45 0.45 0 1 0 0.9 0 a0.45 0.45 0 1 0 -0.9 0Z M29.05 12.5 a0.45 0.45 0 1 0 0.9 0 a0.45 0.45 0 1 0 -0.9 0Z M31.05 12.5 a0.45 0.45 0 1 0 0.9 0 a0.45 0.45 0 1 0 -0.9 0Z M32.05 12.5 a0.45 0.45 0 1 0 0.9 0 a0.45 0.45 0 1 0 -0.9 0Z M33.05 12.5 a0.45 0.45 0 1 0 0.9 0 a0.45 0.45 0 1 0 -0.9 0Z M34.05 12.5 a0.45 0.45 0 1 0 0.9 0 a0.45 0.45 0 1 0 -0.9 0Z M36.05 12.5 a0.45 0.45 0 1 0 0.9 0 a0.45 0.45 0 1 0 -0.9 0Z M4.05 13.5 a0.45 0.45 0 1 0 0.9 0 a0.45 0.45 0 1 0 -0.9 0Z M5.05 13.5 a0.45 0.45 0 1 0 0.9 0 a0.45 0.45 0 1 0 -0.9 0Z M6.05 13.5 a0.45 0.45 0 1 0 0.9 0 a0.45 0.45 0 1 0 -0.9 0Z M7.05 13.5 a0.45 0.45 0 1 0 0.9 0 a0.45 0.45 0 1 0 -0.9 0Z M8.05 13.5 a0.45 0.45 0 1 0 0.9 0 a0.45 0.45 0 1 0 -0.9 0Z M9.05 13.5 a0.45 0.45 0 1 0 0.9 0 a0.45 0.45 0 1 0 -0.9 0Z M11.05 13.5 a0.45 0.45 0 1 0 0.9 0 a0.45 0.45 0 1 0 -0.9 0Z M12.05 13.5 a0.45 0.45 0 1 0 0.9 0 a0.45 0.45 0 1 0 -0.9 0Z M13.05 13.5 a0.45 0.45 0 1 0 0.9 0 a0.45 0.45 0 1 0 -0.9 0Z M17.05 13.5 a0.45 0.45 0 1 0 0.9 0 a0.45 0.45 0 1 0 -0.9 0Z M19.05 13.5 a0.45 0.45 0 1 0 0.9 0 a0.45 0.45 0 1 0 -0.9 0Z M21.05 13.5 a0.45 0.45 0 1 0 0.9 0 a0.45 0.45 0 1 0 -0.9 0Z M25.05 13.5 a0.45 0.45 0 1 0 0.9 0 a0.45 0.45 0 1 0 -0.9 0Z M26.05 13.5 a0.45 0.45 0 1 0 0.9 0 a0.45 0.45 0 1 0 -0.9 0Z M27.05 13.5 a0.45 0.45 0 1 0 0.9 0 a0.45 0.45 0 1 0 -0.9 0Z M29.05 13.5 a0.45 0.45 0 1 0 0.9 0 a0.45 0.45 0 1 0 -0.9 0Z M30.05 13.5 a0.45 0.45 0 1 0 0.9 0 a0.45 0.45 0 1 0 -0.9 0Z M31.05 13.5 a0.45 0.45 0 1 0 0.9 0 a0.45 0.45 0 1 0 -0.9 0Z M32.05 13.5 a0.45 0.45 0 1 0 0.9 0 a0.45 0.45 0 1 0 -0.9 0Z M33.05 13.5 a0.45 0.45 0 1 0 0.9 0 a0.45 0.45 0 1 0 -0.9 0Z M34.05 13.5 a0.45 0.45 0 1 0 0.9 0 a0.45 0.45 0 1 0 -0.9 0Z M38.05 13.5 a0.45 0.45 0 1 0 0.9 0 a0.45 0.45 0 1 0 -0.9 0Z M5.05 14.5 a0.45 0.45 0 1 0 0.9 0 a0.45 0.45 0 1 0 -0.9 0Z
M7.05 14.5 a0.45 0.45 0 1 0 0.9 0 a0.45 0.45 0 1 0 -0.9 0Z M9.05 14.5 a0.45 0.45 0 1 0 0.9 0 a0.45 0.45 0 1 0 -0.9 0Z M10.05 14.5 a0.45 0.45 0 1 0 0.9 0 a0.45 0.45 0 1 0 -0.9 0Z M12.05 14.5 a0.45 0.45 0 1 0 0.9 0 a0.45 0.45 0 1 0 -0.9 0Z M14.05 14.5 a0.45 0.45 0 1 0 0.9 0 a0.45 0.45 0 1 0 -0.9 0Z M17.05 14.5 a0.45 0.45 0 1 0 0.9 0 a0.45 0.45 0 1 0 -0.9 0Z M19.05 14.5 a0.45 0.45 0 1 0 0.9 0 a0.45 0.45 0 1 0 -0.9 0Z M20.05 14.5 a0.45 0.45 0 1 0 0.9 0 a0.45 0.45 0 1 0 -0.9 0Z M21.05 14.5 a0.45 0.45 0 1 0 0.9 0 a0.45 0.45 0 1 0 -0.9 0Z M22.05 14.5 a0.45 0.45 0 1 0 0.9 0 a0.45 0.45 0 1 0 -0.9 0Z M23.05 14.5 a0.45 0.45 0 1 0 0.9 0 a0.45 0.45 0 1 0 -0.9 0Z M24.05 14.5 a0.45 0.45 0 1 0 0.9 0 a0.45 0.45 0 1 0 -0.9 0Z M27.05 14.5 a0.45 0.45 0 1 0 0.9 0 a0.45 0.45 0 1 0 -0.9 0Z M28.05 14.5 a0.45 0.45 0 1 0 0.9 0 a0.45 0.45 0 1 0 -0.9 0Z M29.05 14.5 a0.45 0.45 0 1 0 0.9 0 a0.45 0.45 0 1 0 -0.9 0Z M31.05 14.5 a0.45 0.45 0 1 0 0.9 0 a0.45 0.45 0 1 0 -0.9 0Z M33.05 14.5 a0.45 0.45 0 1 0 0.9 0 a0.45 0.45 0 1 0 -0.9 0Z M35.05 14.5 a0.45 0.45 0 1 0 0.9 0 a0.45 0.45 0 1 0 -0.9 0Z M36.05 14.5 a0.45 0.45 0 1 0 0.9 0 a0.45 0.45 0 1 0 -0.9 0Z M38.05 14.5 a0.45 0.45 0 1 0 0.9 0 a0.45 0.45 0 1 0 -0.9 0Z M4.05 15.5 a0.45 0.45 0 1 0 0.9 0 a0.45 0.45 0 1 0 -0.9 0Z M5.05 15.5 a0.45 0.45 0 1 0 0.9 0 a0.45 0.45 0 1 0 -0.9 0Z M11.05 15.5 a0.45 0.45 0 1 0 0.9 0 a0.45 0.45 0 1 0 -0.9 0Z M16.05 15.5 a0.45 0.45 0 1 0 0.9 0 a0.45 0.45 0 1 0 -0.9 0Z M18.05 15.5 a0.45 0.45 0 1 0 0.9 0 a0.45 0.45 0 1 0 -0.9 0Z M21.05 15.5 a0.45 0.45 0 1 0 0.9 0 a0.45 0.45 0 1 0 -0.9 0Z M24.05 15.5 a0.45 0.45 0 1 0 0.9 0 a0.45 0.45 0 1 0 -0.9 0Z M25.05 15.5 a0.45 0.45 0 1 0 0.9 0 a0.45 0.45 0 1 0 -0.9 0Z M29.05 15.5 a0.45 0.45 0 1 0 0.9 0 a0.45 0.45 0 1 0 -0.9 0Z M30.05 15.5 a0.45 0.45 0 1 0 0.9 0 a0.45 0.45 0 1 0 -0.9 0Z M31.05 15.5 a0.45 0.45 0 1 0 0.9 0 a0.45 0.45 0 1 0 -0.9 0Z M35.05 15.5 a0.45 0.45 0 1 0 0.9 0 a0.45 0.45 0 1 0 -0.9 0Z M37.05 15.5 a0.45 0.45 0 1 0 0.9 0 a0.45 0.45 0 1 0 -0.9 0Z M39.05 15.5 a0.45 0.45 0 1 0 0.9 0 a0.45 0.45 0 1 0 -0.9 0Z M40.05 15.5 a0.45 0.45 0 1 0 0.9 0 a0.45 0.45 0 1 0 -0.9 0Z M8.05 16.5 a0.45 0.45 0 1 0 0.9 0 a0.45 0.45 0 1 0 -0.9 0Z M10.05 16.5 a0.45 0.45 0 1 0 0.9 0 a0.45 0.45 0 1 0 -0.9 0Z M11.05 16.5 a0.45 0.45 0 1 0 0.9 0 a0.45 0.45 0 1 0 -0.9 0Z M12.05 16.5 a0.45 0.45 0 1 0 0.9 0 a0.45 0.45 0 1 0 -0.9 0Z M14.05 16.5 a0.45 0.45 0 1 0 0.9 0 a0.45 0.45 0 1 0 -0.9 0Z M15.05 16.5 a0.45 0.45 0 1 0 0.9 0 a0.45 0.45 0 1 0 -0.9 0Z M17.05 16.5 a0.45 0.45 0 1 0 0.9 0 a0.45 0.45 0 1 0 -0.9 0Z M18.05 16.5 a0.45 0.45 0 1 0 0.9 0 a0.45 0.45 0 1 0 -0.9 0Z M19.05 16.5 a0.45 0.45 0 1 0 0.9 0 a0.45 0.45 0 1 0 -0.9 0Z M20.05 16.5 a0.45 0.45 0 1 0 0.9 0 a0.45 0.45 0 1 0 -0.9 0Z M22.05 16.5 a0.45 0.45 0 1 0 0.9 0 a0.45 0.45 0 1 0 -0.9 0Z M24.05 16.5 a0.45 0.45 0 1 0 0.9 0 a0.45 0.45 0 1 0 -0.9 0Z M29.05 16.5 a0.45 0.45 0 1 0 0.9 0 a0.45 0.45 0 1 0 -0.9 0Z M30.05 16.5 a0.45 0.45 0 1 0 0.9 0 a0.45 0.45 0 1 0 -0.9 0Z M33.05 16.5 a0.45 0.45 0 1 0 0.9 0 a0.45 0.45 0 1 0 -0.9 0Z M34.05 16.5 a0.45 0.45 0 1 0 0.9 0 a0.45 0.45 0 1 0 -0.9 0Z M36.05 16.5 a0.45 0.45 0 1 0 0.9 0 a0.45 0.45 0 1 0 -0.9 0Z M37.05 16.5 a0.45 0.45 0 1 0 0.9 0 a0.45 0.45 0 1 0 -0.9 0Z M39.05 16.5 a0.45 0.45 0 1 0 0.9 0 a0.45 0.45 0 1 0 -0.9 0Z M4.05 17.5 a0.45 0.45 0 1 0 0.9 0 a0.45 0.45 0 1 0 -0.9 0Z M8.05 17.5 a0.45 0.45 0 1 0 0.9 0 a0.45 0.45 0 1 0 -0.9 0Z M9.05 17.5 a0.45 0.45 0 1 0 0.9 0 a0.45 0.45 0 1 0 -0.9 0Z M12.05 17.5 a0.45 0.45 0 1 0 0.9 0 a0.45 0.45 0 1 0 -0.9 0Z M13.05 17.5 a0.45 0.45 0 1 0 0.9 0 a0.45 0.45 0 1 0 -0.9 0Z M16.05 17.5 a0.45 0.45 0 1 0 0.9 0 a0.45 0.45 0 1 0 -0.9 0Z M19.05 17.5 a0.45 0.45 0 1 0 0.9 0 a0.45 0.45 0 1 0 -0.9 0Z M22.05 17.5 a0.45 0.45 0 1 0 0.9 0 a0.45 0.45 0 1 0 -0.9 0Z M24.05 17.5 a0.45 0.45 0 1 0 0.9 0 a0.45 0.45 0 1 0 -0.9 0Z M25.05 17.5 a0.45 0.45 0 1 0 0.9 0 a0.45 0.45 0 1 0 -0.9 0Z M27.05 17.5 a0.45 0.45 0 1 0 0.9 0 a0.45 0.45 0 1 0 -0.9 0Z M29.05 17.5 a0.45 0.45 0 1 0 0.9 0 a0.45 0.45 0 1 0 -0.9 0Z M30.05 17.5 a0.45 0.45 0 1 0 0.9 0 a0.45 0.45 0 1 0 -0.9 0Z M31.05 17.5 a0.45 0.45 0 1 0 0.9 0 a0.45 0.45 0 1 0 -0.9 0Z M32.05 17.5 a0.45 0.45 0 1 0 0.9 0 a0.45 0.45 0 1 0 -0.9 0Z M34.05 17.5 a0.45 0.45 0 1 0 0.9 0 a0.45 0.45 0 1 0 -0.9 0Z M35.05 17.5 a0.45 0.45 0 1 0 0.9 0 a0.45 0.45 0 1 0 -0.9 0Z M36.05 17.5 a0.45 0.45 0 1 0 0.9 0 a0.45 0.45 0 1 0 -0.9 0Z M38.05 17.5 a0.45 0.45 0 1 0 0.9 0 a0.45 0.45 0 1 0 -0.9 0Z M39.05 17.5 a0.45 0.45 0 1 0 0.9 0 a0.45 0.45 0 1 0 -0.9 0Z M40.05 17.5 a0.45 0.45 0 1 0 0.9 0 a0.45 0.45 0 1 0 -0.9 0Z M6.05 18.5 a0.45 0.45 0 1 0 0.9 0 a0.45 0.45 0 1 0 -0.9 0Z M8.05 18.5 a0.45 0.45 0 1 0 0.9 0 a0.45 0.45 0 1 0 -0.9 0Z M9.05 18.5 a0.45 0.45 0 1 0 0.9 0 a0.45 0.45 0 1 0 -0.9 0Z M10.05 18.5 a0.45 0.45 0 1 0 0.9 0 a0.45 0.45 0 1 0 -0.9 0Z M11.05 18.5 a0.45 0.45 0 1 0 0.9 0 a0.45 0.45 0 1 0 -0.9 0Z M14.05 18.5 a0.45 0.45 0 1 0 0.9 0 a0.45 0.45 0 1 0 -0.9 0Z M16.05 18.5 a0.45 0.45 0 1 0 0.9 0 a0.45 0.45 0 1 0 -0.9 0Z M17.05 18.5 a0.45 0.45 0 1 0 0.9 0 a0.45 0.45 0 1 0 -0.9 0Z M20.05 18.5 a0.45 0.45 0 1 0 0.9 0 a0.45 0.45 0 1 0 -0.9 0Z M22.05 18.5 a0.45 0.45 0 1 0 0.9 0 a0.45 0.45 0 1 0 -0.9 0Z M27.05 18.5 a0.45 0.45 0 1 0 0.9 0 a0.45 0.45 0 1 0 -0.9 0Z M30.05 18.5 a0.45 0.45 0 1 0 0.9 0 a0.45 0.45 0 1 0 -0.9 0Z M33.05 18.5 a0.45 0.45 0 1 0 0.9 0 a0.45 0.45 0 1 0 -0.9 0Z M34.05 18.5 a0.45 0.45 0 1 0 0.9 0 a0.45 0.45 0 1 0 -0.9 0Z M35.05 18.5 a0.45 0.45 0 1 0 0.9 0 a0.45 0.45 0 1 0 -0.9 0Z M38.05 18.5 a0.45 0.45 0 1 0 0.9 0 a0.45 0.45 0 1 0 -0.9 0Z M5.05 19.5 a0.45 0.45 0 1 0 0.9 0 a0.45 0.45 0 1 0 -0.9 0Z M9.05 19.5 a0.45 0.45 0 1 0 0.9 0 a0.45 0.45 0 1 0 -0.9 0Z M13.05 19.5 a0.45 0.45 0 1 0 0.9 0 a0.45 0.45 0 1 0 -0.9 0Z M14.05 19.5 a0.45 0.45 0 1 0 0.9 0 a0.45 0.45 0 1 0 -0.9 0Z M15.05 19.5 a0.45 0.45 0 1 0 0.9 0 a0.45 0.45 0 1 0 -0.9 0Z M16.05 19.5 a0.45 0.45 0 1 0 0.9 0 a0.45 0.45 0 1 0 -0.9 0Z M17.05 19.5 a0.45 0.45 0 1 0 0.9 0 a0.45 0.45 0 1 0 -0.9 0Z M19.05 19.5 a0.45 0.45 0 1 0 0.9 0 a0.45 0.45 0 1 0 -0.9 0Z M21.05 19.5 a0.45 0.45 0 1 0 0.9 0 a0.45 0.45 0 1 0 -0.9 0Z
M22.05 19.5 a0.45 0.45 0 1 0 0.9 0 a0.45 0.45 0 1 0 -0.9 0Z M23.05 19.5 a0.45 0.45 0 1 0 0.9 0 a0.45 0.45 0 1 0 -0.9 0Z M27.05 19.5 a0.45 0.45 0 1 0 0.9 0 a0.45 0.45 0 1 0 -0.9 0Z M30.05 19.5 a0.45 0.45 0 1 0 0.9 0 a0.45 0.45 0 1 0 -0.9 0Z M33.05 19.5 a0.45 0.45 0 1 0 0.9 0 a0.45 0.45 0 1 0 -0.9 0Z M35.05 19.5 a0.45 0.45 0 1 0 0.9 0 a0.45 0.45 0 1 0 -0.9 0Z M36.05 19.5 a0.45 0.45 0 1 0 0.9 0 a0.45 0.45 0 1 0 -0.9 0Z M39.05 19.5 a0.45 0.45 0 1 0 0.9 0 a0.45 0.45 0 1 0 -0.9 0Z M4.05 20.5 a0.45 0.45 0 1 0 0.9 0 a0.45 0.45 0 1 0 -0.9 0Z M5.05 20.5 a0.45 0.45 0 1 0 0.9 0 a0.45 0.45 0 1 0 -0.9 0Z M7.05 20.5 a0.45 0.45 0 1 0 0.9 0 a0.45 0.45 0 1 0 -0.9 0Z M10.05 20.5 a0.45 0.45 0 1 0 0.9 0 a0.45 0.45 0 1 0 -0.9 0Z M14.05 20.5 a0.45 0.45 0 1 0 0.9 0 a0.45 0.45 0 1 0 -0.9 0Z M15.05 20.5 a0.45 0.45 0 1 0 0.9 0 a0.45 0.45 0 1 0 -0.9 0Z M16.05 20.5 a0.45 0.45 0 1 0 0.9 0 a0.45 0.45 0 1 0 -0.9 0Z M25.05 20.5 a0.45 0.45 0 1 0 0.9 0 a0.45 0.45 0 1 0 -0.9 0Z M28.05 20.5 a0.45 0.45 0 1 0 0.9 0 a0.45 0.45 0 1 0 -0.9 0Z M29.05 20.5 a0.45 0.45 0 1 0 0.9 0 a0.45 0.45 0 1 0 -0.9 0Z M32.05 20.5 a0.45 0.45 0 1 0 0.9 0 a0.45 0.45 0 1 0 -0.9 0Z M33.05 20.5 a0.45 0.45 0 1 0 0.9 0 a0.45 0.45 0 1 0 -0.9 0Z M37.05 20.5 a0.45 0.45 0 1 0 0.9 0 a0.45 0.45 0 1 0 -0.9 0Z M38.05 20.5 a0.45 0.45 0 1 0 0.9 0 a0.45 0.45 0 1 0 -0.9 0Z M39.05 20.5 a0.45 0.45 0 1 0 0.9 0 a0.45 0.45 0 1 0 -0.9 0Z M40.05 20.5 a0.45 0.45 0 1 0 0.9 0 a0.45 0.45 0 1 0 -0.9 0Z M5.05 21.5 a0.45 0.45 0 1 0 0.9 0 a0.45 0.45 0 1 0 -0.9 0Z M7.05 21.5 a0.45 0.45 0 1 0 0.9 0 a0.45 0.45 0 1 0 -0.9 0Z M8.05 21.5 a0.45 0.45 0 1 0 0.9 0 a0.45 0.45 0 1 0 -0.9 0Z M9.05 21.5 a0.45 0.45 0 1 0 0.9 0 a0.45 0.45 0 1 0 -0.9 0Z M12.05 21.5 a0.45 0.45 0 1 0 0.9 0 a0.45 0.45 0 1 0 -0.9 0Z M14.05 21.5 a0.45 0.45 0 1 0 0.9 0 a0.45 0.45 0 1 0 -0.9 0Z M16.05 21.5 a0.45 0.45 0 1 0 0.9 0 a0.45 0.45 0 1 0 -0.9 0Z M17.05 21.5 a0.45 0.45 0 1 0 0.9 0 a0.45 0.45 0 1 0 -0.9 0Z M18.05 21.5 a0.45 0.45 0 1 0 0.9 0 a0.45 0.45 0 1 0 -0.9 0Z M19.05 21.5 a0.45 0.45 0 1 0 0.9 0 a0.45 0.45 0 1 0 -0.9 0Z M21.05 21.5 a0.45 0.45 0 1 0 0.9 0 a0.45 0.45 0 1 0 -0.9 0Z M22.05 21.5 a0.45 0.45 0 1 0 0.9 0 a0.45 0.45 0 1 0 -0.9 0Z M23.05 21.5 a0.45 0.45 0 1 0 0.9 0 a0.45 0.45 0 1 0 -0.9 0Z M24.05 21.5 a0.45 0.45 0 1 0 0.9 0 a0.45 0.45 0 1 0 -0.9 0Z M25.05 21.5 a0.45 0.45 0 1 0 0.9 0 a0.45 0.45 0 1 0 -0.9 0Z M27.05 21.5 a0.45 0.45 0 1 0 0.9 0 a0.45 0.45 0 1 0 -0.9 0Z M30.05 21.5 a0.45 0.45 0 1 0 0.9 0 a0.45 0.45 0 1 0 -0.9 0Z M31.05 21.5 a0.45 0.45 0 1 0 0.9 0 a0.45 0.45 0 1 0 -0.9 0Z M34.05 21.5 a0.45 0.45 0 1 0 0.9 0 a0.45 0.45 0 1 0 -0.9 0Z M37.05 21.5 a0.45 0.45 0 1 0 0.9 0 a0.45 0.45 0 1 0 -0.9 0Z M40.05 21.5 a0.45 0.45 0 1 0 0.9 0 a0.45 0.45 0 1 0 -0.9 0Z M4.05 22.5 a0.45 0.45 0 1 0 0.9 0 a0.45 0.45 0 1 0 -0.9 0Z M6.05 22.5 a0.45 0.45 0 1 0 0.9 0 a0.45 0.45 0 1 0 -0.9 0Z M9.05 22.5 a0.45 0.45 0 1 0 0.9 0 a0.45 0.45 0 1 0 -0.9 0Z M10.05 22.5 a0.45 0.45 0 1 0 0.9 0 a0.45 0.45 0 1 0 -0.9 0Z M11.05 22.5 a0.45 0.45 0 1 0 0.9 0 a0.45 0.45 0 1 0 -0.9 0Z M18.05 22.5 a0.45 0.45 0 1 0 0.9 0 a0.45 0.45 0 1 0 -0.9 0Z M19.05 22.5 a0.45 0.45 0 1 0 0.9 0 a0.45 0.45 0 1 0 -0.9 0Z M22.05 22.5 a0.45 0.45 0 1 0 0.9 0 a0.45 0.45 0 1 0 -0.9 0Z M23.05 22.5 a0.45 0.45 0 1 0 0.9 0 a0.45 0.45 0 1 0 -0.9 0Z M24.05 22.5 a0.45 0.45 0 1 0 0.9 0 a0.45 0.45 0 1 0 -0.9 0Z M27.05 22.5 a0.45 0.45 0 1 0 0.9 0 a0.45 0.45 0 1 0 -0.9 0Z M29.05 22.5 a0.45 0.45 0 1 0 0.9 0 a0.45 0.45 0 1 0 -0.9 0Z M30.05 22.5 a0.45 0.45 0 1 0 0.9 0 a0.45 0.45 0 1 0 -0.9 0Z M31.05 22.5 a0.45 0.45 0 1 0 0.9 0 a0.45 0.45 0 1 0 -0.9 0Z M32.05 22.5 a0.45 0.45 0 1 0 0.9 0 a0.45 0.45 0 1 0 -0.9 0Z M34.05 22.5 a0.45 0.45 0 1 0 0.9 0 a0.45 0.45 0 1 0 -0.9 0Z M35.05 22.5 a0.45 0.45 0 1 0 0.9 0 a0.45 0.45 0 1 0 -0.9 0Z M37.05 22.5 a0.45 0.45 0 1 0 0.9 0 a0.45 0.45 0 1 0 -0.9 0Z M38.05 22.5 a0.45 0.45 0 1 0 0.9 0 a0.45 0.45 0 1 0 -0.9 0Z M39.05 22.5 a0.45 0.45 0 1 0 0.9 0 a0.45 0.45 0 1 0 -0.9 0Z M40.05 22.5 a0.45 0.45 0 1 0 0.9 0 a0.45 0.45 0 1 0 -0.9 0Z M6.05 23.5 a0.45 0.45 0 1 0 0.9 0 a0.45 0.45 0 1 0 -0.9 0Z M7.05 23.5 a0.45 0.45 0 1 0 0.9 0 a0.45 0.45 0 1 0 -0.9 0Z M8.05 23.5 a0.45 0.45 0 1 0 0.9 0 a0.45 0.45 0 1 0 -0.9 0Z M9.05 23.5 a0.45 0.45 0 1 0 0.9 0 a0.45 0.45 0 1 0 -0.9 0Z M11.05 23.5 a0.45 0.45 0 1 0 0.9 0 a0.45 0.45 0 1 0 -0.9 0Z M12.05 23.5 a0.45 0.45 0 1 0 0.9 0 a0.45 0.45 0 1 0 -0.9 0Z M13.05 23.5 a0.45 0.45 0 1 0 0.9 0 a0.45 0.45 0 1 0 -0.9 0Z M19.05 23.5 a0.45 0.45 0 1 0 0.9 0 a0.45 0.45 0 1 0 -0.9 0Z M20.05 23.5 a0.45 0.45 0 1 0 0.9 0 a0.45 0.45 0 1 0 -0.9 0Z M22.05 23.5 a0.45 0.45 0 1 0 0.9 0 a0.45 0.45 0 1 0 -0.9 0Z M23.05 23.5 a0.45 0.45 0 1 0 0.9 0 a0.45 0.45 0 1 0 -0.9 0Z M26.05 23.5 a0.45 0.45 0 1 0 0.9 0 a0.45 0.45 0 1 0 -0.9 0Z M27.05 23.5 a0.45 0.45 0 1 0 0.9 0 a0.45 0.45 0 1 0 -0.9 0Z M29.05 23.5 a0.45 0.45 0 1 0 0.9 0 a0.45 0.45 0 1 0 -0.9 0Z M30.05 23.5 a0.45 0.45 0 1 0 0.9 0 a0.45 0.45 0 1 0 -0.9 0Z M33.05 23.5 a0.45 0.45 0 1 0 0.9 0 a0.45 0.45 0 1 0 -0.9 0Z M34.05 23.5 a0.45 0.45 0 1 0 0.9 0 a0.45 0.45 0 1 0 -0.9 0Z M37.05 23.5 a0.45 0.45 0 1 0 0.9 0 a0.45 0.45 0 1 0 -0.9 0Z M4.05 24.5 a0.45 0.45 0 1 0 0.9 0 a0.45 0.45 0 1 0 -0.9 0Z M5.05 24.5 a0.45 0.45 0 1 0 0.9 0 a0.45 0.45 0 1 0 -0.9 0Z M6.05 24.5 a0.45 0.45 0 1 0 0.9 0 a0.45 0.45 0 1 0 -0.9 0Z M10.05 24.5 a0.45 0.45 0 1 0 0.9 0 a0.45 0.45 0 1 0 -0.9 0Z M12.05 24.5 a0.45 0.45 0 1 0 0.9 0 a0.45 0.45 0 1 0 -0.9 0Z M13.05 24.5 a0.45 0.45 0 1 0 0.9 0 a0.45 0.45 0 1 0 -0.9 0Z M14.05 24.5 a0.45 0.45 0 1 0 0.9 0 a0.45 0.45 0 1 0 -0.9 0Z M15.05 24.5 a0.45 0.45 0 1 0 0.9 0 a0.45 0.45 0 1 0 -0.9 0Z M17.05 24.5 a0.45 0.45 0 1 0 0.9 0 a0.45 0.45 0 1 0 -0.9 0Z M18.05 24.5 a0.45 0.45 0 1 0 0.9 0 a0.45 0.45 0 1 0 -0.9 0Z M19.05 24.5 a0.45 0.45 0 1 0 0.9 0 a0.45 0.45 0 1 0 -0.9 0Z M20.05 24.5 a0.45 0.45 0 1 0 0.9 0 a0.45 0.45 0 1 0 -0.9 0Z M22.05 24.5 a0.45 0.45 0 1 0 0.9 0 a0.45 0.45 0 1 0 -0.9 0Z M23.05 24.5 a0.45 0.45 0 1 0 0.9 0 a0.45 0.45 0 1 0 -0.9 0Z M24.05 24.5 a0.45 0.45 0 1 0 0.9 0 a0.45 0.45 0 1 0 -0.9 0Z M25.05 24.5 a0.45 0.45 0 1 0 0.9 0 a0.45 0.45 0 1 0 -0.9 0Z
M26.05 24.5 a0.45 0.45 0 1 0 0.9 0 a0.45 0.45 0 1 0 -0.9 0Z M27.05 24.5 a0.45 0.45 0 1 0 0.9 0 a0.45 0.45 0 1 0 -0.9 0Z M29.05 24.5 a0.45 0.45 0 1 0 0.9 0 a0.45 0.45 0 1 0 -0.9 0Z M30.05 24.5 a0.45 0.45 0 1 0 0.9 0 a0.45 0.45 0 1 0 -0.9 0Z M32.05 24.5 a0.45 0.45 0 1 0 0.9 0 a0.45 0.45 0 1 0 -0.9 0Z M33.05 24.5 a0.45 0.45 0 1 0 0.9 0 a0.45 0.45 0 1 0 -0.9 0Z M36.05 24.5 a0.45 0.45 0 1 0 0.9 0 a0.45 0.45 0 1 0 -0.9 0Z M39.05 24.5 a0.45 0.45 0 1 0 0.9 0 a0.45 0.45 0 1 0 -0.9 0Z M40.05 24.5 a0.45 0.45 0 1 0 0.9 0 a0.45 0.45 0 1 0 -0.9 0Z M7.05 25.5 a0.45 0.45 0 1 0 0.9 0 a0.45 0.45 0 1 0 -0.9 0Z M9.05 25.5 a0.45 0.45 0 1 0 0.9 0 a0.45 0.45 0 1 0 -0.9 0Z M12.05 25.5 a0.45 0.45 0 1 0 0.9 0 a0.45 0.45 0 1 0 -0.9 0Z M13.05 25.5 a0.45 0.45 0 1 0 0.9 0 a0.45 0.45 0 1 0 -0.9 0Z M14.05 25.5 a0.45 0.45 0 1 0 0.9 0 a0.45 0.45 0 1 0 -0.9 0Z M15.05 25.5 a0.45 0.45 0 1 0 0.9 0 a0.45 0.45 0 1 0 -0.9 0Z M16.05 25.5 a0.45 0.45 0 1 0 0.9 0 a0.45 0.45 0 1 0 -0.9 0Z M17.05 25.5 a0.45 0.45 0 1 0 0.9 0 a0.45 0.45 0 1 0 -0.9 0Z M18.05 25.5 a0.45 0.45 0 1 0 0.9 0 a0.45 0.45 0 1 0 -0.9 0Z M22.05 25.5 a0.45 0.45 0 1 0 0.9 0 a0.45 0.45 0 1 0 -0.9 0Z M23.05 25.5 a0.45 0.45 0 1 0 0.9 0 a0.45 0.45 0 1 0 -0.9 0Z M24.05 25.5 a0.45 0.45 0 1 0 0.9 0 a0.45 0.45 0 1 0 -0.9 0Z M25.05 25.5 a0.45 0.45 0 1 0 0.9 0 a0.45 0.45 0 1 0 -0.9 0Z M29.05 25.5 a0.45 0.45 0 1 0 0.9 0 a0.45 0.45 0 1 0 -0.9 0Z M35.05 25.5 a0.45 0.45 0 1 0 0.9 0 a0.45 0.45 0 1 0 -0.9 0Z M37.05 25.5 a0.45 0.45 0 1 0 0.9 0 a0.45 0.45 0 1 0 -0.9 0Z M39.05 25.5 a0.45 0.45 0 1 0 0.9 0 a0.45 0.45 0 1 0 -0.9 0Z M40.05 25.5 a0.45 0.45 0 1 0 0.9 0 a0.45 0.45 0 1 0 -0.9 0Z M5.05 26.5 a0.45 0.45 0 1 0 0.9 0 a0.45 0.45 0 1 0 -0.9 0Z M6.05 26.5 a0.45 0.45 0 1 0 0.9 0 a0.45 0.45 0 1 0 -0.9 0Z M8.05 26.5 a0.45 0.45 0 1 0 0.9 0 a0.45 0.45 0 1 0 -0.9 0Z M10.05 26.5 a0.45 0.45 0 1 0 0.9 0 a0.45 0.45 0 1 0 -0.9 0Z M15.05 26.5 a0.45 0.45 0 1 0 0.9 0 a0.45 0.45 0 1 0 -0.9 0Z M16.05 26.5 a0.45 0.45 0 1 0 0.9 0 a0.45 0.45 0 1 0 -0.9 0Z M17.05 26.5 a0.45 0.45 0 1 0 0.9 0 a0.45 0.45 0 1 0 -0.9 0Z M18.05 26.5 a0.45 0.45 0 1 0 0.9 0 a0.45 0.45 0 1 0 -0.9 0Z M19.05 26.5 a0.45 0.45 0 1 0 0.9 0 a0.45 0.45 0 1 0 -0.9 0Z M21.05 26.5 a0.45 0.45 0 1 0 0.9 0 a0.45 0.45 0 1 0 -0.9 0Z M22.05 26.5 a0.45 0.45 0 1 0 0.9 0 a0.45 0.45 0 1 0 -0.9 0Z M23.05 26.5 a0.45 0.45 0 1 0 0.9 0 a0.45 0.45 0 1 0 -0.9 0Z M26.05 26.5 a0.45 0.45 0 1 0 0.9 0 a0.45 0.45 0 1 0 -0.9 0Z M27.05 26.5 a0.45 0.45 0 1 0 0.9 0 a0.45 0.45 0 1 0 -0.9 0Z M28.05 26.5 a0.45 0.45 0 1 0 0.9 0 a0.45 0.45 0 1 0 -0.9 0Z M29.05 26.5 a0.45 0.45 0 1 0 0.9 0 a0.45 0.45 0 1 0 -0.9 0Z M34.05 26.5 a0.45 0.45 0 1 0 0.9 0 a0.45 0.45 0 1 0 -0.9 0Z M36.05 26.5 a0.45 0.45 0 1 0 0.9 0 a0.45 0.45 0 1 0 -0.9 0Z M38.05 26.5 a0.45 0.45 0 1 0 0.9 0 a0.45 0.45 0 1 0 -0.9 0Z M39.05 26.5 a0.45 0.45 0 1 0 0.9 0 a0.45 0.45 0 1 0 -0.9 0Z M7.05 27.5 a0.45 0.45 0 1 0 0.9 0 a0.45 0.45 0 1 0 -0.9 0Z M8.05 27.5 a0.45 0.45 0 1 0 0.9 0 a0.45 0.45 0 1 0 -0.9 0Z M9.05 27.5 a0.45 0.45 0 1 0 0.9 0 a0.45 0.45 0 1 0 -0.9 0Z M11.05 27.5 a0.45 0.45 0 1 0 0.9 0 a0.45 0.45 0 1 0 -0.9 0Z M12.05 27.5 a0.45 0.45 0 1 0 0.9 0 a0.45 0.45 0 1 0 -0.9 0Z M16.05 27.5 a0.45 0.45 0 1 0 0.9 0 a0.45 0.45 0 1 0 -0.9 0Z M17.05 27.5 a0.45 0.45 0 1 0 0.9 0 a0.45 0.45 0 1 0 -0.9 0Z M18.05 27.5 a0.45 0.45 0 1 0 0.9 0 a0.45 0.45 0 1 0 -0.9 0Z M19.05 27.5 a0.45 0.45 0 1 0 0.9 0 a0.45 0.45 0 1 0 -0.9 0Z M23.05 27.5 a0.45 0.45 0 1 0 0.9 0 a0.45 0.45 0 1 0 -0.9 0Z M26.05 27.5 a0.45 0.45 0 1 0 0.9 0 a0.45 0.45 0 1 0 -0.9 0Z M27.05 27.5 a0.45 0.45 0 1 0 0.9 0 a0.45 0.45 0 1 0 -0.9 0Z M28.05 27.5 a0.45 0.45 0 1 0 0.9 0 a0.45 0.45 0 1 0 -0.9 0Z M31.05 27.5 a0.45 0.45 0 1 0 0.9 0 a0.45 0.45 0 1 0 -0.9 0Z M32.05 27.5 a0.45 0.45 0 1 0 0.9 0 a0.45 0.45 0 1 0 -0.9 0Z M34.05 27.5 a0.45 0.45 0 1 0 0.9 0 a0.45 0.45 0 1 0 -0.9 0Z M37.05 27.5 a0.45 0.45 0 1 0 0.9 0 a0.45 0.45 0 1 0 -0.9 0Z M38.05 27.5 a0.45 0.45 0 1 0 0.9 0 a0.45 0.45 0 1 0 -0.9 0Z M39.05 27.5 a0.45 0.45 0 1 0 0.9 0 a0.45 0.45 0 1 0 -0.9 0Z M5.05 28.5 a0.45 0.45 0 1 0 0.9 0 a0.45 0.45 0 1 0 -0.9 0Z M6.05 28.5 a0.45 0.45 0 1 0 0.9 0 a0.45 0.45 0 1 0 -0.9 0Z M8.05 28.5 a0.45 0.45 0 1 0 0.9 0 a0.45 0.45 0 1 0 -0.9 0Z M10.05 28.5 a0.45 0.45 0 1 0 0.9 0 a0.45 0.45 0 1 0 -0.9 0Z M11.05 28.5 a0.45 0.45 0 1 0 0.9 0 a0.45 0.45 0 1 0 -0.9 0Z M17.05 28.5 a0.45 0.45 0 1 0 0.9 0 a0.45 0.45 0 1 0 -0.9 0Z M20.05 28.5 a0.45 0.45 0 1 0 0.9 0 a0.45 0.45 0 1 0 -0.9 0Z M21.05 28.5 a0.45 0.45 0 1 0 0.9 0 a0.45 0.45 0 1 0 -0.9 0Z M22.05 28.5 a0.45 0.45 0 1 0 0.9 0 a0.45 0.45 0 1 0 -0.9 0Z M23.05 28.5 a0.45 0.45 0 1 0 0.9 0 a0.45 0.45 0 1 0 -0.9 0Z M25.05 28.5 a0.45 0.45 0 1 0 0.9 0 a0.45 0.45 0 1 0 -0.9 0Z M26.05 28.5 a0.45 0.45 0 1 0 0.9 0 a0.45 0.45 0 1 0 -0.9 0Z M28.05 28.5 a0.45 0.45 0 1 0 0.9 0 a0.45 0.45 0 1 0 -0.9 0Z M30.05 28.5 a0.45 0.45 0 1 0 0.9 0 a0.45 0.45 0 1 0 -0.9 0Z M32.05 28.5 a0.45 0.45 0 1 0 0.9 0 a0.45 0.45 0 1 0 -0.9 0Z M33.05 28.5 a0.45 0.45 0 1 0 0.9 0 a0.45 0.45 0 1 0 -0.9 0Z M37.05 28.5 a0.45 0.45 0 1 0 0.9 0 a0.45 0.45 0 1 0 -0.9 0Z M38.05 28.5 a0.45 0.45 0 1 0 0.9 0 a0.45 0.45 0 1 0 -0.9 0Z M40.05 28.5 a0.45 0.45 0 1 0 0.9 0 a0.45 0.45 0 1 0 -0.9 0Z M5.05 29.5 a0.45 0.45 0 1 0 0.9 0 a0.45 0.45 0 1 0 -0.9 0Z M9.05 29.5 a0.45 0.45 0 1 0 0.9 0 a0.45 0.45 0 1 0 -0.9 0Z M12.05 29.5 a0.45 0.45 0 1 0 0.9 0 a0.45 0.45 0 1 0 -0.9 0Z M13.05 29.5 a0.45 0.45 0 1 0 0.9 0 a0.45 0.45 0 1 0 -0.9 0Z M16.05 29.5 a0.45 0.45 0 1 0 0.9 0 a0.45 0.45 0 1 0 -0.9 0Z M18.05 29.5 a0.45 0.45 0 1 0 0.9 0 a0.45 0.45 0 1 0 -0.9 0Z M20.05 29.5 a0.45 0.45 0 1 0 0.9 0 a0.45 0.45 0 1 0 -0.9 0Z M21.05 29.5 a0.45 0.45 0 1 0 0.9 0 a0.45 0.45 0 1 0 -0.9 0Z M23.05 29.5 a0.45 0.45 0 1 0 0.9 0 a0.45 0.45 0 1 0 -0.9 0Z M27.05 29.5 a0.45 0.45 0 1 0 0.9 0 a0.45 0.45 0 1 0 -0.9 0Z M28.05 29.5 a0.45 0.45 0 1 0 0.9 0 a0.45 0.45 0 1 0 -0.9 0Z M29.05 29.5 a0.45 0.45 0 1 0 0.9 0 a0.45 0.45 0 1 0 -0.9 0Z M30.05 29.5 a0.45 0.45 0 1 0 0.9 0 a0.45 0.45 0 1 0 -0.9 0Z M33.05 29.5 a0.45 0.45 0 1 0 0.9 0 a0.45 0.45 0 1 0 -0.9 0Z M35.05 29.5 a0.45 0.45 0 1 0 0.9 0 a0.45 0.45 0 1 0 -0.9 0Z
M5.05 30.5 a0.45 0.45 0 1 0 0.9 0 a0.45 0.45 0 1 0 -0.9 0Z M7.05 30.5 a0.45 0.45 0 1 0 0.9 0 a0.45 0.45 0 1 0 -0.9 0Z M8.05 30.5 a0.45 0.45 0 1 0 0.9 0 a0.45 0.45 0 1 0 -0.9 0Z M10.05 30.5 a0.45 0.45 0 1 0 0.9 0 a0.45 0.45 0 1 0 -0.9 0Z M12.05 30.5 a0.45 0.45 0 1 0 0.9 0 a0.45 0.45 0 1 0 -0.9 0Z M13.05 30.5 a0.45 0.45 0 1 0 0.9 0 a0.45 0.45 0 1 0 -0.9 0Z M14.05 30.5 a0.45 0.45 0 1 0 0.9 0 a0.45 0.45 0 1 0 -0.9 0Z M22.05 30.5 a0.45 0.45 0 1 0 0.9 0 a0.45 0.45 0 1 0 -0.9 0Z M25.05 30.5 a0.45 0.45 0 1 0 0.9 0 a0.45 0.45 0 1 0 -0.9 0Z M27.05 30.5 a0.45 0.45 0 1 0 0.9 0 a0.45 0.45 0 1 0 -0.9 0Z M29.05 30.5 a0.45 0.45 0 1 0 0.9 0 a0.45 0.45 0 1 0 -0.9 0Z M30.05 30.5 a0.45 0.45 0 1 0 0.9 0 a0.45 0.45 0 1 0 -0.9 0Z M35.05 30.5 a0.45 0.45 0 1 0 0.9 0 a0.45 0.45 0 1 0 -0.9 0Z M36.05 30.5 a0.45 0.45 0 1 0 0.9 0 a0.45 0.45 0 1 0 -0.9 0Z M37.05 30.5 a0.45 0.45 0 1 0 0.9 0 a0.45 0.45 0 1 0 -0.9 0Z M38.05 30.5 a0.45 0.45 0 1 0 0.9 0 a0.45 0.45 0 1 0 -0.9 0Z M39.05 30.5 a0.45 0.45 0 1 0 0.9 0 a0.45 0.45 0 1 0 -0.9 0Z M4.05 31.5 a0.45 0.45 0 1 0 0.9 0 a0.45 0.45 0 1 0 -0.9 0Z M6.05 31.5 a0.45 0.45 0 1 0 0.9 0 a0.45 0.45 0 1 0 -0.9 0Z M11.05 31.5 a0.45 0.45 0 1 0 0.9 0 a0.45 0.45 0 1 0 -0.9 0Z M13.05 31.5 a0.45 0.45 0 1 0 0.9 0 a0.45 0.45 0 1 0 -0.9 0Z M15.05 31.5 a0.45 0.45 0 1 0 0.9 0 a0.45 0.45 0 1 0 -0.9 0Z M18.05 31.5 a0.45 0.45 0 1 0 0.9 0 a0.45 0.45 0 1 0 -0.9 0Z M19.05 31.5 a0.45 0.45 0 1 0 0.9 0 a0.45 0.45 0 1 0 -0.9 0Z M20.05 31.5 a0.45 0.45 0 1 0 0.9 0 a0.45 0.45 0 1 0 -0.9 0Z M22.05 31.5 a0.45 0.45 0 1 0 0.9 0 a0.45 0.45 0 1 0 -0.9 0Z M25.05 31.5 a0.45 0.45 0 1 0 0.9 0 a0.45 0.45 0 1 0 -0.9 0Z M26.05 31.5 a0.45 0.45 0 1 0 0.9 0 a0.45 0.45 0 1 0 -0.9 0Z M27.05 31.5 a0.45 0.45 0 1 0 0.9 0 a0.45 0.45 0 1 0 -0.9 0Z M31.05 31.5 a0.45 0.45 0 1 0 0.9 0 a0.45 0.45 0 1 0 -0.9 0Z M33.05 31.5 a0.45 0.45 0 1 0 0.9 0 a0.45 0.45 0 1 0 -0.9 0Z M35.05 31.5 a0.45 0.45 0 1 0 0.9 0 a0.45 0.45 0 1 0 -0.9 0Z M36.05 31.5 a0.45 0.45 0 1 0 0.9 0 a0.45 0.45 0 1 0 -0.9 0Z M37.05 31.5 a0.45 0.45 0 1 0 0.9 0 a0.45 0.45 0 1 0 -0.9 0Z M7.05 32.5 a0.45 0.45 0 1 0 0.9 0 a0.45 0.45 0 1 0 -0.9 0Z M8.05 32.5 a0.45 0.45 0 1 0 0.9 0 a0.45 0.45 0 1 0 -0.9 0Z M9.05 32.5 a0.45 0.45 0 1 0 0.9 0 a0.45 0.45 0 1 0 -0.9 0Z M10.05 32.5 a0.45 0.45 0 1 0 0.9 0 a0.45 0.45 0 1 0 -0.9 0Z M11.05 32.5 a0.45 0.45 0 1 0 0.9 0 a0.45 0.45 0 1 0 -0.9 0Z M12.05 32.5 a0.45 0.45 0 1 0 0.9 0 a0.45 0.45 0 1 0 -0.9 0Z M13.05 32.5 a0.45 0.45 0 1 0 0.9 0 a0.45 0.45 0 1 0 -0.9 0Z M16.05 32.5 a0.45 0.45 0 1 0 0.9 0 a0.45 0.45 0 1 0 -0.9 0Z M17.05 32.5 a0.45 0.45 0 1 0 0.9 0 a0.45 0.45 0 1 0 -0.9 0Z M18.05 32.5 a0.45 0.45 0 1 0 0.9 0 a0.45 0.45 0 1 0 -0.9 0Z M20.05 32.5 a0.45 0.45 0 1 0 0.9 0 a0.45 0.45 0 1 0 -0.9 0Z M22.05 32.5 a0.45 0.45 0 1 0 0.9 0 a0.45 0.45 0 1 0 -0.9 0Z M23.05 32.5 a0.45 0.45 0 1 0 0.9 0 a0.45 0.45 0 1 0 -0.9 0Z M24.05 32.5 a0.45 0.45 0 1 0 0.9 0 a0.45 0.45 0 1 0 -0.9 0Z M25.05 32.5 a0.45 0.45 0 1 0 0.9 0 a0.45 0.45 0 1 0 -0.9 0Z M26.05 32.5 a0.45 0.45 0 1 0 0.9 0 a0.45 0.45 0 1 0 -0.9 0Z M29.05 32.5 a0.45 0.45 0 1 0 0.9 0 a0.45 0.45 0 1 0 -0.9 0Z M32 32 h1 v1 h-1Z M33 32 h1 v1 h-1Z M34 32 h1 v1 h-1Z M35 32 h1 v1 h-1Z M36 32 h1 v1 h-1Z M37.05 32.5 a0.45 0.45 0 1 0 0.9 0 a0.45 0.45 0 1 0 -0.9 0Z M39.05 32.5 a0.45 0.45 0 1 0 0.9 0 a0.45 0.45 0 1 0 -0.9 0Z M12.05 33.5 a0.45 0.45 0 1 0 0.9 0 a0.45 0.45 0 1 0 -0.9 0Z M17.05 33.5 a0.45 0.45 0 1 0 0.9 0 a0.45 0.45 0 1 0 -0.9 0Z M20.05 33.5 a0.45 0.45 0 1 0 0.9 0 a0.45 0.45 0 1 0 -0.9 0Z M21.05 33.5 a0.45 0.45 0 1 0 0.9 0 a0.45 0.45 0 1 0 -0.9 0Z M22.05 33.5 a0.45 0.45 0 1 0 0.9 0 a0.45 0.45 0 1 0 -0.9 0Z M23.05 33.5 a0.45 0.45 0 1 0 0.9 0 a0.45 0.45 0 1 0 -0.9 0Z M25.05 33.5 a0.45 0.45 0 1 0 0.9 0 a0.45 0.45 0 1 0 -0.9 0Z M28.05 33.5 a0.45 0.45 0 1 0 0.9 0 a0.45 0.45 0 1 0 -0.9 0Z M29.05 33.5 a0.45 0.45 0 1 0 0.9 0 a0.45 0.45 0 1 0 -0.9 0Z M32 33 h1 v1 h-1Z M36 33 h1 v1 h-1Z M37.05 33.5 a0.45 0.45 0 1 0 0.9 0 a0.45 0.45 0 1 0 -0.9 0Z M38.05 33.5 a0.45 0.45 0 1 0 0.9 0 a0.45 0.45 0 1 0 -0.9 0Z M40.05 33.5 a0.45 0.45 0 1 0 0.9 0 a0.45 0.45 0 1 0 -0.9 0Z M4 34 h1 v1 h-1Z M5 34 h1 v1 h-1Z M6 34 h1 v1 h-1Z M7 34 h1 v1 h-1Z M8 34 h1 v1 h-1Z M9 34 h1 v1 h-1Z M10 34 h1 v1 h-1Z M12.05 34.5 a0.45 0.45 0 1 0 0.9 0 a0.45 0.45 0 1 0 -0.9 0Z M15.05 34.5 a0.45 0.45 0 1 0 0.9 0 a0.45 0.45 0 1 0 -0.9 0Z M16.05 34.5 a0.45 0.45 0 1 0 0.9 0 a0.45 0.45 0 1 0 -0.9 0Z M18.05 34.5 a0.45 0.45 0 1 0 0.9 0 a0.45 0.45 0 1 0 -0.9 0Z M19.05 34.5 a0.45 0.45 0 1 0 0.9 0 a0.45 0.45 0 1 0 -0.9 0Z M20.05 34.5 a0.45 0.45 0 1 0 0.9 0 a0.45 0.45 0 1 0 -0.9 0Z M21.05 34.5 a0.45 0.45 0 1 0 0.9 0 a0.45 0.45 0 1 0 -0.9 0Z M24.05 34.5 a0.45 0.45 0 1 0 0.9 0 a0.45 0.45 0 1 0 -0.9 0Z M25.05 34.5 a0.45 0.45 0 1 0 0.9 0 a0.45 0.45 0 1 0 -0.9 0Z M27.05 34.5 a0.45 0.45 0 1 0 0.9 0 a0.45 0.45 0 1 0 -0.9 0Z M28.05 34.5 a0.45 0.45 0 1 0 0.9 0 a0.45 0.45 0 1 0 -0.9 0Z M32 34 h1 v1 h-1Z M34 34 h1 v1 h-1Z M36 34 h1 v1 h-1Z M37.05 34.5 a0.45 0.45 0 1 0 0.9 0 a0.45 0.45 0 1 0 -0.9 0Z M39.05 34.5 a0.45 0.45 0 1 0 0.9 0 a0.45 0.45 0 1 0 -0.9 0Z M40.05 34.5 a0.45 0.45 0 1 0 0.9 0 a0.45 0.45 0 1 0 -0.9 0Z M4 35 h1 v1 h-1Z M10 35 h1 v1 h-1Z M13.05 35.5 a0.45 0.45 0 1 0 0.9 0 a0.45 0.45 0 1 0 -0.9 0Z M18.05 35.5 a0.45 0.45 0 1 0 0.9 0 a0.45 0.45 0 1 0 -0.9 0Z
M19.05 35.5 a0.45 0.45 0 1 0 0.9 0 a0.45 0.45 0 1 0 -0.9 0Z M23.05 35.5 a0.45 0.45 0 1 0 0.9 0 a0.45 0.45 0 1 0 -0.9 0Z M24.05 35.5 a0.45 0.45 0 1 0 0.9 0 a0.45 0.45 0 1 0 -0.9 0Z M26.05 35.5 a0.45 0.45 0 1 0 0.9 0 a0.45 0.45 0 1 0 -0.9 0Z M28.05 35.5 a0.45 0.45 0 1 0 0.9 0 a0.45 0.45 0 1 0 -0.9 0Z M31.05 35.5 a0.45 0.45 0 1 0 0.9 0 a0.45 0.45 0 1 0 -0.9 0Z M32 35 h1 v1 h-1Z M36 35 h1 v1 h-1Z M37.05 35.5 a0.45 0.45 0 1 0 0.9 0 a0.45 0.45 0 1 0 -0.9 0Z M39.05 35.5 a0.45 0.45 0 1 0 0.9 0 a0.45 0.45 0 1 0 -0.9 0Z M40.05 35.5 a0.45 0.45 0 1 0 0.9 0 a0.45 0.45 0 1 0 -0.9 0Z M4 36 h1 v1 h-1Z M6 36 h1 v1 h-1Z M7 36 h1 v1 h-1Z M8 36 h1 v1 h-1Z M10 36 h1 v1 h-1Z M16.05 36.5 a0.45 0.45 0 1 0 0.9 0 a0.45 0.45 0 1 0 -0.9 0Z M18.05 36.5 a0.45 0.45 0 1 0 0.9 0 a0.45 0.45 0 1 0 -0.9 0Z M19.05 36.5 a0.45 0.45 0 1 0 0.9 0 a0.45 0.45 0 1 0 -0.9 0Z M20.05 36.5 a0.45 0.45 0 1 0 0.9 0 a0.45 0.45 0 1 0 -0.9 0Z M21.05 36.5 a0.45 0.45 0 1 0 0.9 0 a0.45 0.45 0 1 0 -0.9 0Z M24.05 36.5 a0.45 0.45 0 1 0 0.9 0 a0.45 0.45 0 1 0 -0.9 0Z M25.05 36.5 a0.45 0.45 0 1 0 0.9 0 a0.45 0.45 0 1 0 -0.9 0Z M27.05 36.5 a0.45 0.45 0 1 0 0.9 0 a0.45 0.45 0 1 0 -0.9 0Z M28.05 36.5 a0.45 0.45 0 1 0 0.9 0 a0.45 0.45 0 1 0 -0.9 0Z M30.05 36.5 a0.45 0.45 0 1 0 0.9 0 a0.45 0.45 0 1 0 -0.9 0Z M32 36 h1 v1 h-1Z M33 36 h1 v1 h-1Z M34 36 h1 v1 h-1Z M35 36 h1 v1 h-1Z M36 36 h1 v1 h-1Z M37.05 36.5 a0.45 0.45 0 1 0 0.9 0 a0.45 0.45 0 1 0 -0.9 0Z M39.05 36.5 a0.45 0.45 0 1 0 0.9 0 a0.45 0.45 0 1 0 -0.9 0Z M40.05 36.5 a0.45 0.45 0 1 0 0.9 0 a0.45 0.45 0 1 0 -0.9 0Z M4 37 h1 v1 h-1Z M6 37 h1 v1 h-1Z M7 37 h1 v1 h-1Z M8 37 h1 v1 h-1Z M10 37 h1 v1 h-1Z M12.05 37.5 a0.45 0.45 0 1 0 0.9 0 a0.45 0.45 0 1 0 -0.9 0Z M13.05 37.5 a0.45 0.45 0 1 0 0.9 0 a0.45 0.45 0 1 0 -0.9 0Z M18.05 37.5 a0.45 0.45 0 1 0 0.9 0 a0.45 0.45 0 1 0 -0.9 0Z M19.05 37.5 a0.45 0.45 0 1 0 0.9 0 a0.45 0.45 0 1 0 -0.9 0Z M20.05 37.5 a0.45 0.45 0 1 0 0.9 0 a0.45 0.45 0 1 0 -0.9 0Z M21.05 37.5 a0.45 0.45 0 1 0 0.9 0 a0.45 0.45 0 1 0 -0.9 0Z M24.05 37.5 a0.45 0.45 0 1 0 0.9 0 a0.45 0.45 0 1 0 -0.9 0Z M26.05 37.5 a0.45 0.45 0 1 0 0.9 0 a0.45 0.45 0 1 0 -0.9 0Z M28.05 37.5 a0.45 0.45 0 1 0 0.9 0 a0.45 0.45 0 1 0 -0.9 0Z M30.05 37.5 a0.45 0.45 0 1 0 0.9 0 a0.45 0.45 0 1 0 -0.9 0Z M34.05 37.5 a0.45 0.45 0 1 0 0.9 0 a0.45 0.45 0 1 0 -0.9 0Z M36.05 37.5 a0.45 0.45 0 1 0 0.9 0 a0.45 0.45 0 1 0 -0.9 0Z M37.05 37.5 a0.45 0.45 0 1 0 0.9 0 a0.45 0.45 0 1 0 -0.9 0Z M39.05 37.5 a0.45 0.45 0 1 0 0.9 0 a0.45 0.45 0 1 0 -0.9 0Z M40.05 37.5 a0.45 0.45 0 1 0 0.9 0 a0.45 0.45 0 1 0 -0.9 0Z M4 38 h1 v1 h-1Z M6 38 h1 v1 h-1Z M7 38 h1 v1 h-1Z M8 38 h1 v1 h-1Z M10 38 h1 v1 h-1Z M12.05 38.5 a0.45 0.45 0 1 0 0.9 0 a0.45 0.45 0 1 0 -0.9 0Z M13.05 38.5 a0.45 0.45 0 1 0 0.9 0 a0.45 0.45 0 1 0 -0.9 0Z M15.05 38.5 a0.45 0.45 0 1 0 0.9 0 a0.45 0.45 0 1 0 -0.9 0Z M17.05 38.5 a0.45 0.45 0 1 0 0.9 0 a0.45 0.45 0 1 0 -0.9 0Z M18.05 38.5 a0.45 0.45 0 1 0 0.9 0 a0.45 0.45 0 1 0 -0.9 0Z M20.05 38.5 a0.45 0.45 0 1 0 0.9 0 a0.45 0.45 0 1 0 -0.9 0Z M21.05 38.5 a0.45 0.45 0 1 0 0.9 0 a0.45 0.45 0 1 0 -0.9 0Z M25.05 38.5 a0.45 0.45 0 1 0 0.9 0 a0.45 0.45 0 1 0 -0.9 0Z M26.05 38.5 a0.45 0.45 0 1 0 0.9 0 a0.45 0.45 0 1 0 -0.9 0Z M27.05 38.5 a0.45 0.45 0 1 0 0.9 0 a0.45 0.45 0 1 0 -0.9 0Z M28.05 38.5 a0.45 0.45 0 1 0 0.9 0 a0.45 0.45 0 1 0 -0.9 0Z M30.05 38.5 a0.45 0.45 0 1 0 0.9 0 a0.45 0.45 0 1 0 -0.9 0Z M34.05 38.5 a0.45 0.45 0 1 0 0.9 0 a0.45 0.45 0 1 0 -0.9 0Z M35.05 38.5 a0.45 0.45 0 1 0 0.9 0 a0.45 0.45 0 1 0 -0.9 0Z M36.05 38.5 a0.45 0.45 0 1 0 0.9 0 a0.45 0.45 0 1 0 -0.9 0Z M38.05 38.5 a0.45 0.45 0 1 0 0.9 0 a0.45 0.45 0 1 0 -0.9 0Z M39.05 38.5 a0.45 0.45 0 1 0 0.9 0 a0.45 0.45 0 1 0 -0.9 0Z M4 39 h1 v1 h-1Z M10 39 h1 v1 h-1Z M13.05 39.5 a0.45 0.45 0 1 0 0.9 0 a0.45 0.45 0 1 0 -0.9 0Z M15.05 39.5 a0.45 0.45 0 1 0 0.9 0 a0.45 0.45 0 1 0 -0.9 0Z M16.05 39.5 a0.45 0.45 0 1 0 0.9 0 a0.45 0.45 0 1 0 -0.9 0Z M17.05 39.5 a0.45 0.45 0 1 0 0.9 0 a0.45 0.45 0 1 0 -0.9 0Z M18.05 39.5 a0.45 0.45 0 1 0 0.9 0 a0.45 0.45 0 1 0 -0.9 0Z M19.05 39.5 a0.45 0.45 0 1 0 0.9 0 a0.45 0.45 0 1 0 -0.9 0Z M20.05 39.5 a0.45 0.45 0 1 0 0.9 0 a0.45 0.45 0 1 0 -0.9 0Z M24.05 39.5 a0.45 0.45 0 1 0 0.9 0 a0.45 0.45 0 1 0 -0.9 0Z M29.05 39.5 a0.45 0.45 0 1 0 0.9 0 a0.45 0.45 0 1 0 -0.9 0Z M30.05 39.5 a0.45 0.45 0 1 0 0.9 0 a0.45 0.45 0 1 0 -0.9 0Z M31.05 39.5 a0.45 0.45 0 1 0 0.9 0 a0.45 0.45 0 1 0 -0.9 0Z M33.05 39.5 a0.45 0.45 0 1 0 0.9 0 a0.45 0.45 0 1 0 -0.9 0Z M34.05 39.5 a0.45 0.45 0 1 0 0.9 0 a0.45 0.45 0 1 0 -0.9 0Z M37.05 39.5 a0.45 0.45 0 1 0 0.9 0 a0.45 0.45 0 1 0 -0.9 0Z M38.05 39.5 a0.45 0.45 0 1 0 0.9 0 a0.45 0.45 0 1 0 -0.9 0Z M4 40 h1 v1 h-1Z M5 40 h1 v1 h-1Z M6 40 h1 v1 h-1Z M7 40 h1 v1 h-1Z M8 40 h1 v1 h-1Z M9 40 h1 v1 h-1Z M10 40 h1 v1 h-1Z
M14.05 40.5 a0.45 0.45 0 1 0 0.9 0 a0.45 0.45 0 1 0 -0.9 0Z M15.05 40.5 a0.45 0.45 0 1 0 0.9 0 a0.45 0.45 0 1 0 -0.9 0Z M16.05 40.5 a0.45 0.45 0 1 0 0.9 0 a0.45 0.45 0 1 0 -0.9 0Z M17.05 40.5 a0.45 0.45 0 1 0 0.9 0 a0.45 0.45 0 1 0 -0.9 0Z M20.05 40.5 a0.45 0.45 0 1 0 0.9 0 a0.45 0.45 0 1 0 -0.9 0Z M22.05 40.5 a0.45 0.45 0 1 0 0.9 0 a0.45 0.45 0 1 0 -0.9 0Z M23.05 40.5 a0.45 0.45 0 1 0 0.9 0 a0.45 0.45 0 1 0 -0.9 0Z M24.05 40.5 a0.45 0.45 0 1 0 0.9 0 a0.45 0.45 0 1 0 -0.9 0Z M25.05 40.5 a0.45 0.45 0 1 0 0.9 0 a0.45 0.45 0 1 0 -0.9 0Z M26.05 40.5 a0.45 0.45 0 1 0 0.9 0 a0.45 0.45 0 1 0 -0.9 0Z M33.05 40.5 a0.45 0.45 0 1 0 0.9 0 a0.45 0.45 0 1 0 -0.9 0Z M36.05 40.5 a0.45 0.45 0 1 0 0.9 0 a0.45 0.45 0 1 0 -0.9 0Z M37.05 40.5 a0.45 0.45 0 1 0 0.9 0 a0.45 0.45 0 1 0 -0.9 0Z M38.05 40.5 a0.45 0.45 0 1 0 0.9 0 a0.45 0.45 0 1 0 -0.9 0Z M39.05 40.5 a0.45 0.45 0 1 0 0.9 0 a0.45 0.45 0 1 0 -0.9 0Z M40.05 40.5 a0.45 0.45 0 1 0 0.9 0 a0.45 0.45 0 1 0 -0.9 0Z"/>
</svg>
